# xmcd
#
# Track frame offsets:
#  150
#  33202
#  62769
#  91616
#  130673
#  154912
#  189126
#  204236
#  220037
#  239390
#  262593
#
# Disc length: 3950 seconds
#
# Revision: 0
# Processed by: cddbd v1.5.2PL0 Copyright (c) Steve Scherf et al.
# Submitted via: Collectorz.com_Music_Collector 6.11
#
DISCID=7e0f6c0b
DTITLE=Eric Clapton - Double Image - Part 1 (2CDs) [CD1)
DYEAR=2000
DGENRE=Blues
TTITLE0=My Father's Eyes
TTITLE1=Pilgrim
TTITLE2=One Chance
TTITLE3=River Of Tears
TTITLE4=Going Down Slow
TTITLE5=She's Gone
TTITLE6=Drifftin' Blues
TTITLE7=Alberta
TTITLE8=Tears In Heaven
TTITLE9=Layla
TTITLE10=Change The World
EXTD=
EXTT0=
EXTT1=
EXTT2=
EXTT3=
EXTT4=
EXTT5=
EXTT6=
EXTT7=
EXTT8=
EXTT9=
EXTT10=
PLAYORDER=
